<svg width="1908" height="8731" fill="none" xmlns="http://www.w3.org/2000/svg">
<path d="M486 1420L103 1037" stroke="#79BFFF" stroke-width="5" stroke-linecap="round"/>
<path d="M704.001 1124L753.001 1173" stroke="#79BFFF" stroke-width="4" stroke-linecap="round"/>
<path d="M273 1204L353 1124" stroke="#79BFFF" stroke-width="5" stroke-linecap="round"/>
<path d="M705.001 1122L753.001 1074" stroke="#79BFFF" stroke-width="4" stroke-linecap="round"/>
<circle cx="271.899" cy="1205.9" r="7" transform="rotate(45 271.899 1205.9)" fill="#79BFFF"/>
<circle cx="704.899" cy="1122.81" r="7" transform="rotate(45 704.899 1122.81)" fill="#79BFFF"/>
<circle cx="934.898" cy="6737.14" r="10" transform="rotate(45 934.898 6737.14)" fill="#79BFFF"/>
<path d="M1093 4953L1244 5104" stroke="#79BFFF" stroke-width="5" stroke-linecap="round"/>
<path d="M314 7952L132 7770" stroke="#79BFFF" stroke-width="5" stroke-linecap="round"/>
<path d="M1563 4199L1787 4423" stroke="#79BFFF" stroke-width="5" stroke-linecap="round"/>
<path d="M864 1915L1023 2074" stroke="#79BFFF" stroke-width="5" stroke-linecap="round"/>
<path d="M870 2229L1135 1964" stroke="#79BFFF" stroke-width="5" stroke-linecap="round"/>
<path d="M233 2460L103 2330" stroke="#79BFFF" stroke-width="5" stroke-linecap="round"/>
<path d="M752 2980L582 2810" stroke="#79BFFF" stroke-width="5" stroke-linecap="round"/>
<path d="M29 7668L136 7775" stroke="#79BFFF" stroke-width="5" stroke-linecap="round"/>
<path d="M1494 2072L1388 1966" stroke="#79BFFF" stroke-width="5" stroke-linecap="round"/>
<path d="M448 5991L409 5951" stroke="#79BFFF" stroke-width="5" stroke-linecap="round"/>
<path d="M448 3289L756 2981" stroke="#79BFFF" stroke-width="5" stroke-linecap="round"/>
<path d="M553 5807L370 5990" stroke="#79BFFF" stroke-width="5" stroke-linecap="round"/>
<path d="M1654 2072L1497 2071.74" stroke="#79BFFF" stroke-width="5" stroke-linecap="round"/>
<path d="M1388 1964.63L1134.21 1964.21" stroke="#79BFFF" stroke-width="5" stroke-linecap="round"/>
<path d="M1534 940.628L1219.11 940.114" stroke="#79BFFF" stroke-width="5" stroke-linecap="round"/>
<path d="M685 7949.63L312.019 7949.02" stroke="#79BFFF" stroke-width="5" stroke-linecap="round"/>
<path d="M1014 2982.63L752 2980" stroke="#79BFFF" stroke-width="5" stroke-linecap="round"/>
<path d="M588.798 5093.22L200.995 5092.58" stroke="#79BFFF" stroke-width="5" stroke-linecap="round"/>
<path d="M1404 4198.63L1561 4198.37" stroke="#79BFFF" stroke-width="5" stroke-linecap="round"/>
<path d="M1723 2006L1657 2072" stroke="#79BFFF" stroke-width="5" stroke-linecap="round"/>
<path d="M1033 1124L1218 939" stroke="#79BFFF" stroke-width="5" stroke-linecap="round"/>
<path d="M834 7807L690 7951" stroke="#79BFFF" stroke-width="5" stroke-linecap="round"/>
<path d="M1071.24 2930L1019.24 2982" stroke="#79BFFF" stroke-width="5" stroke-linecap="round"/>
<path d="M673 5013L592 5094" stroke="#79BFFF" stroke-width="5" stroke-linecap="round"/>
<path d="M884 5808L1006 5930" stroke="#79BFFF" stroke-width="5" stroke-linecap="round"/>
<path d="M1349 4147L1401 4199" stroke="#79BFFF" stroke-width="5" stroke-linecap="round"/>
<path d="M1563 2298L1494 2229" stroke="#79BFFF" stroke-width="5" stroke-linecap="round"/>
<path d="M1715 2130L1657 2072" stroke="#79BFFF" stroke-width="5" stroke-linecap="round"/>
<path d="M864 585L1218 939" stroke="#79BFFF" stroke-width="5" stroke-linecap="round"/>
<path d="M1073.24 3034L1021.24 2982" stroke="#79BFFF" stroke-width="5" stroke-linecap="round"/>
<path d="M673 5175L592 5094" stroke="#79BFFF" stroke-width="5" stroke-linecap="round"/>
<path d="M796 6140L1006 5930" stroke="#79BFFF" stroke-width="5" stroke-linecap="round"/>
<path d="M1349 4251L1401 4199" stroke="#79BFFF" stroke-width="5" stroke-linecap="round"/>
<path d="M1425 2298L1494 2229" stroke="#79BFFF" stroke-width="5" stroke-linecap="round"/>
<path d="M1493.37 2229L1493.63 2072" stroke="#79BFFF" stroke-width="5" stroke-linecap="round"/>
<path d="M1387 1965L1787 1566" stroke="#79BFFF" stroke-width="5" stroke-linecap="round"/>
<path d="M1534 941L1788 1195" stroke="#79BFFF" stroke-width="5" stroke-linecap="round"/>
<path d="M103 6738.63L3 6838.63" stroke="#79BFFF" stroke-width="5" stroke-linecap="round"/>
<path d="M102 7740L12 7830" stroke="#79BFFF" stroke-width="5" stroke-linecap="round"/>
<circle cx="1787.21" cy="4417.21" r="15" transform="rotate(45 1787.21 4417.21)" fill="#79BFFF"/>
<circle cx="102.215" cy="6738.21" r="15" transform="rotate(-135 102.215 6738.21)" fill="#79BFFF"/>
<circle cx="102.215" cy="7742.21" r="15" transform="rotate(-135 102.215 7742.21)" fill="#79BFFF"/>
<circle cx="1788.14" cy="1194.14" r="10" transform="rotate(-135 1788.14 1194.14)" fill="#79BFFF"/>
<circle cx="1391.21" cy="1965.21" r="15" transform="rotate(45 1391.21 1965.21)" fill="#79BFFF"/>
<circle cx="1022.9" cy="2072.9" r="7" transform="rotate(45 1022.9 2072.9)" fill="#79BFFF"/>
<circle cx="311.898" cy="7949.9" r="7" transform="rotate(45 311.898 7949.9)" fill="#79BFFF"/>
<circle cx="1493.9" cy="2072.14" r="10" transform="rotate(45 1493.9 2072.14)" fill="#79BFFF"/>
<circle cx="1656.9" cy="2071.9" r="7" transform="rotate(45 1656.9 2071.9)" fill="#79BFFF"/>
<circle cx="1134.9" cy="1963.9" r="7" transform="rotate(45 1134.9 1963.9)" fill="#79BFFF"/>
<circle cx="201.899" cy="5092.69" r="7" transform="rotate(-135 201.899 5092.69)" fill="#79BFFF"/>
<circle cx="101.899" cy="5373.9" r="7" transform="rotate(-135 101.899 5373.9)" fill="#79BFFF"/>
<circle r="7" transform="matrix(0.707107 -0.707107 -0.707107 -0.707107 1560.9 4198.1)" fill="#79BFFF"/>
<circle r="5.22857" transform="matrix(0.707107 0.707107 0.707107 -0.707107 408.916 5951.49)" fill="#79BFFF"/>
<circle cx="1218.14" cy="939.678" r="12.5" transform="rotate(-135 1218.14 939.678)" fill="#79BFFF"/>
<circle cx="1533.9" cy="941.485" r="6" transform="rotate(45 1533.9 941.485)" fill="#79BFFF"/>
<circle cx="691.898" cy="7950.14" r="10" transform="rotate(45 691.898 7950.14)" fill="#79BFFF"/>
<circle cx="1787.14" cy="8067.14" r="10" transform="rotate(45 1787.14 8067.14)" fill="#79BFFF"/>
<circle cx="829.143" cy="7466.14" r="10" transform="rotate(45 829.143 7466.14)" fill="#79BFFF"/>
<circle cx="1019.14" cy="2982.14" r="10" transform="rotate(45 1019.14 2982.14)" fill="#79BFFF"/>
<path d="M793.133 4265.87L583 4266.37" stroke="#79BFFF" stroke-width="5" stroke-linecap="round"/>
<path d="M1023 4037L793 4267" stroke="#79BFFF" stroke-width="5" stroke-linecap="round"/>
<path d="M848 4321L793 4266" stroke="#79BFFF" stroke-width="5" stroke-linecap="round"/>
<circle cx="582.899" cy="4266.1" r="7" transform="rotate(-135 582.899 4266.1)" fill="#79BFFF"/>
<circle cx="793.143" cy="4267.14" r="10" transform="rotate(45 793.143 4267.14)" fill="#79BFFF"/>
<circle cx="591.696" cy="5093.73" r="10" transform="rotate(45 591.696 5093.73)" fill="#79BFFF"/>
<circle r="10" transform="matrix(-0.707107 0.707107 0.707107 0.707107 1401.1 4199.14)" fill="#79BFFF"/>
<circle cx="751.898" cy="2981.21" r="15" transform="rotate(45 751.898 2981.21)" fill="#79BFFF"/>
<circle cx="1493.9" cy="2228.9" r="7" transform="rotate(45 1493.9 2228.9)" fill="#79BFFF"/>
<path d="M1787.32 4941.57L1403.01 4940.99" stroke="#79BFFF" stroke-width="5" stroke-linecap="round"/>
<path d="M1663.2 5929.8L1009 5928.82" stroke="#79BFFF" stroke-width="5" stroke-linecap="round"/>
<path d="M883.131 5808.59L552.096 5808.1" stroke="#79BFFF" stroke-width="5" stroke-linecap="round"/>
<path d="M1405 4943L1244 5104" stroke="#79BFFF" stroke-width="5" stroke-linecap="round"/>
<path d="M1171 5175L1244 5102" stroke="#79BFFF" stroke-width="5" stroke-linecap="round"/>
<circle cx="1243.9" cy="5104.21" r="15" transform="rotate(-135 1243.9 5104.21)" fill="#79BFFF"/>
<circle cx="1009.21" cy="5929.21" r="15" transform="rotate(-135 1009.21 5929.21)" fill="#79BFFF"/>
<circle cx="1404.9" cy="4940.9" r="7" transform="rotate(45 1404.9 4940.9)" fill="#79BFFF"/>
<circle cx="1661.9" cy="5929.9" r="7" transform="rotate(45 1661.9 5929.9)" fill="#79BFFF"/>
<circle cx="552.899" cy="5808.9" r="7" transform="rotate(45 552.899 5808.9)" fill="#79BFFF"/>
<circle cx="883.899" cy="5808.9" r="7" transform="rotate(45 883.899 5808.9)" fill="#79BFFF"/>
<circle cx="1787.14" cy="4941.14" r="10" transform="rotate(45 1787.14 4941.14)" fill="#79BFFF"/>
<path d="M834 8095L690 7951" stroke="#79BFFF" stroke-width="5" stroke-linecap="round"/>
<path d="M933.398 6736.4L104 6739" stroke="#79BFFF" stroke-width="5" stroke-linecap="round"/>
<path d="M1030 6643L935 6738" stroke="#79BFFF" stroke-width="5" stroke-linecap="round"/>
<path d="M1787 6507L723 7571" stroke="#79BFFF" stroke-width="5" stroke-linecap="round"/>
<path d="M1030 6833L935 6738" stroke="#79BFFF" stroke-width="5" stroke-linecap="round"/>
<path d="M224 6860L102 6738" stroke="#79BFFF" stroke-width="5" stroke-linecap="round"/>
<path d="M933 7570L773 7410" stroke="#79BFFF" stroke-width="5" stroke-linecap="round"/>
<path d="M1743 2869L1786 2911" stroke="#79BFFF" stroke-width="5" stroke-linecap="round"/>
<path d="M1726 3555.3L1785 3612.5" stroke="#79BFFF" stroke-width="5" stroke-linecap="round"/>
<path d="M1662 5930L1786 6051" stroke="#79BFFF" stroke-width="5" stroke-linecap="round"/>
<path d="M1673 7490L1786 7599" stroke="#79BFFF" stroke-width="5" stroke-linecap="round"/>
<path d="M18 955.573L103 1037.98" stroke="#79BFFF" stroke-width="5" stroke-linecap="round"/>
<path d="M17 3719.28L102 3801.68" stroke="#79BFFF" stroke-width="5" stroke-linecap="round"/>
<path d="M59 4955.82L103 4998.48" stroke="#79BFFF" stroke-width="5" stroke-linecap="round"/>
<path d="M59 2292.68L103 2335.34" stroke="#79BFFF" stroke-width="5" stroke-linecap="round"/>
<path d="M1905 3025.13L1787 2910.74" stroke="#79BFFF" stroke-width="5" stroke-linecap="round"/>
<path d="M1844 3668.73L1786 3612.5" stroke="#79BFFF" stroke-width="5" stroke-linecap="round"/>
<path d="M1893 4522L1788 4420" stroke="#79BFFF" stroke-width="5" stroke-linecap="round"/>
<path d="M1845 6109.03L1787 6052.8" stroke="#79BFFF" stroke-width="5" stroke-linecap="round"/>
<path d="M1905 7713.6L1787 7599.21" stroke="#79BFFF" stroke-width="5" stroke-linecap="round"/>
<path d="M244 226.263L104 90.5369" stroke="#79BFFF" stroke-width="5" stroke-linecap="round"/>
<path d="M42 1095.18L101 1037.98" stroke="#79BFFF" stroke-width="5" stroke-linecap="round"/>
<path d="M18 2414.83L101 2334.37" stroke="#79BFFF" stroke-width="5" stroke-linecap="round"/>
<path d="M40 3859.85L100 3801.68" stroke="#79BFFF" stroke-width="5" stroke-linecap="round"/>
<path d="M104 4999L20 5080" stroke="#79BFFF" stroke-width="5" stroke-linecap="round"/>
<path d="M1848 2853.54L1789 2910.74" stroke="#79BFFF" stroke-width="5" stroke-linecap="round"/>
<path d="M1904 3500.04L1788 3612.5" stroke="#79BFFF" stroke-width="5" stroke-linecap="round"/>
<path d="M1789 6053L1663 6175" stroke="#79BFFF" stroke-width="5" stroke-linecap="round"/>
<path d="M1848 7542.01L1789 7599.21" stroke="#79BFFF" stroke-width="5" stroke-linecap="round"/>
<circle r="14.7728" transform="matrix(-0.71798 -0.696064 0.71798 -0.696064 102.785 1038.18)" fill="#79BFFF"/>
<circle r="14.7729" transform="matrix(-0.717976 -0.696068 0.717976 -0.696068 102.785 2334.57)" fill="#79BFFF"/>
<circle r="14.7728" transform="matrix(-0.71798 -0.696064 0.71798 -0.696064 101.785 3801.89)" fill="#79BFFF"/>
<circle r="14.7727" transform="matrix(-0.717988 -0.696055 0.717988 -0.696055 102.785 4998.68)" fill="#79BFFF"/>
<circle r="14.7728" transform="matrix(0.717983 0.696061 -0.717983 0.696061 1787.21 2910.53)" fill="#79BFFF"/>
<circle r="14.7729" transform="matrix(0.717981 0.696063 -0.717981 0.696063 1786.21 3612.29)" fill="#79BFFF"/>
<circle r="14.7729" transform="matrix(0.717981 0.696063 -0.717981 0.696063 1787.21 6052.59)" fill="#79BFFF"/>
<circle r="14.7729" transform="matrix(0.717982 0.696062 -0.717982 0.696062 1787.21 7599)" fill="#79BFFF"/>
<path d="M583 4266.79L103 3801.76" stroke="#79BFFF" stroke-width="5" stroke-linecap="round"/>
<path d="M203 5094.46L104 4998.48" stroke="#79BFFF" stroke-width="5" stroke-linecap="round"/>
<path d="M243 5510L103 5374" stroke="#79BFFF" stroke-width="5" stroke-linecap="round"/>
<path d="M552 5808L503 5760" stroke="#79BFFF" stroke-width="5" stroke-linecap="round"/>
<path d="M1690 439.547L1787 345.509" stroke="#79BFFF" stroke-width="5" stroke-linecap="round"/>
<path d="M1893 1670.4L1787 1567.63" stroke="#79BFFF" stroke-width="5" stroke-linecap="round"/>
<circle r="9.84854" transform="matrix(0.717979 0.696065 -0.717979 0.696065 1787.14 1569.71)" fill="#79BFFF"/>
<circle r="5.90911" transform="matrix(0.717978 0.696065 -0.717978 0.696065 1787.48 345.979)" fill="#79BFFF"/>
<circle r="5.90911" transform="matrix(0.717978 0.696065 -0.717978 0.696065 353.485 1123.23)" fill="#79BFFF"/>
<ellipse rx="9.84855" ry="9.84855" transform="matrix(-0.717981 -0.696063 0.717981 -0.696063 101.785 90.6743)" fill="#79BFFF"/>
<path d="M1787 8728L1787 3" stroke="#79BFFF" stroke-width="5" stroke-linecap="round"/>
<path d="M102 3V8728" stroke="#79BFFF" stroke-width="5" stroke-linecap="round" stroke-linejoin="round"/>
<path d="M1416 8437L1786 8067" stroke="#79BFFF" stroke-width="5" stroke-linecap="round"/>
<path d="M1055 8435.81L1416.6 8436.4" stroke="#79BFFF" stroke-width="5" stroke-linecap="round"/>
<path d="M311.27 8170.27L311.628 7951" stroke="#79BFFF" stroke-width="5" stroke-linecap="round"/>
<path d="M1000 8487.44L1052 8435.44" stroke="#79BFFF" stroke-width="5" stroke-linecap="round"/>
<path d="M1052 8437.44L1104 8489.44" stroke="#79BFFF" stroke-width="5" stroke-linecap="round"/>
<circle cx="1415.9" cy="8436.33" r="7" transform="rotate(45 1415.9 8436.33)" fill="#79BFFF"/>
<circle cx="1051.1" cy="8436.29" r="10" transform="rotate(-135 1051.1 8436.29)" fill="#79BFFF"/>
<path d="M416 8275L310 8169" stroke="#79BFFF" stroke-width="5" stroke-linecap="round"/>
<path d="M576 8275L419 8274.74" stroke="#79BFFF" stroke-width="5" stroke-linecap="round"/>
<path d="M645 8209L579 8275" stroke="#79BFFF" stroke-width="5" stroke-linecap="round"/>
<path d="M453 8469L416 8432" stroke="#79BFFF" stroke-width="5" stroke-linecap="round"/>
<path d="M637 8333L579 8275" stroke="#79BFFF" stroke-width="5" stroke-linecap="round"/>
<path d="M381 8467L416 8432" stroke="#79BFFF" stroke-width="5" stroke-linecap="round"/>
<path d="M415.371 8432L415.627 8275" stroke="#79BFFF" stroke-width="5" stroke-linecap="round"/>
<circle cx="415.898" cy="8275.14" r="10" transform="rotate(45 415.898 8275.14)" fill="#79BFFF"/>
<circle cx="1786.14" cy="6509.14" r="10" transform="rotate(45 1786.14 6509.14)" fill="#79BFFF"/>
<circle cx="580.898" cy="8274.9" r="7" transform="rotate(45 580.898 8274.9)" fill="#79BFFF"/>
<circle cx="310.899" cy="8169.9" r="7" transform="rotate(45 310.899 8169.9)" fill="#79BFFF"/>
<circle cx="414.898" cy="8431.9" r="7" transform="rotate(45 414.898 8431.9)" fill="#79BFFF"/>
<path d="M354 1123H706" stroke="#79BFFF" stroke-width="5" stroke-linejoin="round"/>
</svg>
