<svg width="300" height="63" viewBox="0 0 300 63" fill="none" xmlns="http://www.w3.org/2000/svg">
<path d="M6.31448 45.9987C9.41056 48.6666 14.0595 49.9981 20.2614 49.9981C26.2784 49.9981 30.9273 48.7108 34.2084 46.1363C37.4895 43.3751 39.13 39.5133 39.13 34.546C39.13 32.2466 38.6821 30.129 37.6258 28.1981C36.657 26.4294 35.0116 24.7638 33.0206 23.7615C31.7598 23.1277 30.9906 22.8476 29.4377 22.3661C27.7631 21.8453 19.4241 19.5509 18.5771 19.3249C13.9281 18.1801 10.9781 16.6177 10.9586 13.8466C11.1971 8.4814 16.1528 8.04904 18.8887 8.04904C21.7121 8.04904 23.9466 8.64845 25.5871 9.84236C28.5323 12.1565 28.2012 15.0897 28.2012 15.0897H37.4797C37.2948 10.4909 35.6542 6.75686 32.5581 3.9072C29.5497 1.33267 25.2658 0.0454102 19.7065 0.0454102C13.7821 0.0454102 9.26938 1.28845 6.1733 3.76963C3.07235 6.34415 1.52431 9.89149 1.52431 14.3969C1.53892 20.1896 4.26016 23.5994 6.71852 25.1618C8.21788 26.0658 11.6158 27.4513 16.0165 28.3357L19.7113 29.1464C26.1226 30.7235 29.8028 32.7232 29.686 35.9217C29.6178 37.8526 28.9558 39.3266 27.5002 40.3387C26.1664 41.2624 23.8979 41.8569 21.0744 41.8569C17.881 41.8569 15.3788 41.2132 13.5533 39.926C11.8202 38.8205 10.7736 36.8896 10.4085 34.1284H0.847656C1.12027 39.3757 2.94092 43.3308 6.31448 45.9987Z" fill="#0A1C4D"/>
<path d="M50.4248 58.2326C50.4248 60.704 48.5214 62.9493 45.7515 62.9493H41.0781V28.4192C41.6233 19.2315 44.9336 11.9108 58.7589 11.4097C64.7368 11.4883 69.0791 13.8859 71.6446 16.9125C74.3951 20.5188 75.5683 24.9996 75.5683 30.6351C75.5683 36.4572 74.1955 41.1739 71.445 44.7802C68.6994 48.2932 65.1701 50.0472 60.8667 50.0472C54.4068 50.0472 51.2718 47.3351 50.4199 46.8241C50.4199 47.1435 50.4248 58.2326 50.4248 58.2326ZM66.0902 31.0527C66.0902 27.4464 65.433 19.8211 58.1212 19.8211C51.1745 19.8211 50.4248 27.2646 50.4248 31.0527C50.4248 40.6482 55.8283 41.8716 58.3938 41.8716C65.0387 41.8716 66.0902 34.7622 66.0902 31.0527Z" fill="#0A1C4D"/>
<path d="M94.426 19.551C100.302 19.4723 101.212 24.5182 101.397 27.0043H87.4549C87.4549 27.0043 87.3381 19.6836 94.426 19.551ZM94.8349 41.7685C92.469 41.6506 87.9563 41.1789 87.5426 33.2146L111.235 33.2195C111.24 32.9788 111.235 30.3551 111.24 30.3502C111.075 24.3512 109.648 19.8752 106.864 16.5195C103.855 13.208 99.6153 11.5522 94.1485 11.5522C88.9543 11.5522 84.8992 13.2571 81.9832 16.6571C79.1549 19.9686 77.7432 24.5673 77.7432 30.4534C77.7432 36.6195 79.1987 41.3558 82.1195 44.6673C85.0355 48.0722 89.0955 49.7721 94.2848 49.7721C98.5687 49.7721 102.122 48.7158 104.951 46.5982C107.774 44.5789 109.702 41.6211 110.705 37.7593H102.473C101.261 41.2231 98.1695 41.9356 94.8349 41.7685Z" fill="#0A1C4D"/>
<path d="M137.362 37.7694H146.348C146.348 37.7694 143.909 49.7724 130.332 49.7724C116.76 49.7724 113.416 38.7766 113.416 31.5542C113.416 24.3318 114.687 11.9898 129.807 11.5574C143.773 11.3461 146.076 23.5604 146.076 23.5604H136.505C136.505 23.5604 135.575 19.4284 129.88 19.561C124.184 19.6888 122.695 25.0884 122.695 30.2227C122.695 35.3521 123.96 41.7737 130.284 41.7737C136.301 41.9505 136.831 38.6734 137.362 37.7694Z" fill="#0A1C4D"/>
<path d="M157.949 22.1844H163.572L163.567 12.5103H157.964V6.30491C157.964 4.60003 157.024 1.61279 153.451 1.61279H148.529V42.1812C148.529 46.4115 150.155 48.9418 153.675 48.9418C153.714 48.9418 157.803 48.9467 157.954 48.9467L157.949 22.1844Z" fill="#0A1C4D"/>
<path d="M173.586 49.0155V30.1094C173.586 27.3482 174.224 25.3289 175.499 24.0367C176.775 22.7494 178.732 22.1058 181.38 22.1058H184.525V12.3088C184.525 12.3088 179.574 12.186 175.981 13.2767C173.674 13.9744 171.629 14.9325 169.896 16.3131C168.071 17.7871 166.635 19.7425 165.588 22.1795C164.541 24.6164 164.016 27.6283 164.016 31.2198V49.0204H173.586V49.0155Z" fill="#0A1C4D"/>
<path d="M187.225 12.3677H196.795V35.8234C196.795 35.8234 196.45 42.1663 203.085 42.1712C209.34 42.1762 209.501 36.4965 209.506 36.0936V16.9173C209.506 16.9173 209.827 12.3677 213.979 12.3677C214.393 12.3677 218.945 12.3677 218.945 12.3677C218.945 12.3677 218.94 33.9465 218.945 34.1529C218.877 35.3419 220.201 49.7671 203.085 49.713C186.129 49.713 187.332 35.1159 187.225 34.256V12.3677Z" fill="#0A1C4D"/>
<path d="M253.5 49.1329H244.022V25.5544C244.022 22.8374 242.912 19.1771 237.562 19.1771C232.314 19.1771 231.243 23.3386 231.243 25.5544V49.128H221.624V27.4951C221.624 21.2111 223.469 17.369 226.502 14.8731C229.505 12.4018 233.346 11.5911 237.285 11.4044C239.392 11.4044 241.452 11.6353 243.467 12.0971C245.482 12.559 247.313 13.4827 248.963 14.8682C250.336 13.6694 251.962 12.8145 253.841 12.3035C255.715 11.7974 257.662 11.4142 259.678 11.4044C271.41 11.3405 276.117 16.7647 276.506 18.504C276.506 18.5285 276.511 49.1231 276.511 49.1231H271.083C269.711 49.1231 266.41 48.1798 266.41 44.4064V25.5544C266.434 22.8816 265.51 19.1771 259.95 19.1771C254.454 19.1771 253.49 23.3386 253.49 25.5544V49.1329H253.5Z" fill="#0A1C4D"/>
<path d="M279.184 18.4941V49.0838L299.152 33.7939L279.184 18.4941Z" fill="#0099D8"/>
</svg>
