<svg width="300" height="63" viewBox="0 0 300 63" fill="none" xmlns="http://www.w3.org/2000/svg">
<path d="M6.31448 45.9987C9.41056 48.6666 14.0595 49.9981 20.2614 49.9981C26.2784 49.9981 30.9273 48.7108 34.2084 46.1363C37.4895 43.3751 39.13 39.5133 39.13 34.546C39.13 32.2466 38.6821 30.129 37.6258 28.1981C36.657 26.4294 35.0116 24.7638 33.0206 23.7615C31.7598 23.1277 30.9906 22.8476 29.4377 22.3661C27.7631 21.8453 19.4241 19.5509 18.5771 19.3249C13.9281 18.1801 10.9781 16.6177 10.9586 13.8466C11.1971 8.4814 16.1528 8.04904 18.8887 8.04904C21.7121 8.04904 23.9466 8.64845 25.5871 9.84236C28.5323 12.1565 28.2012 15.0897 28.2012 15.0897H37.4797C37.2948 10.4909 35.6542 6.75686 32.5581 3.9072C29.5497 1.33267 25.2658 0.0454102 19.7065 0.0454102C13.7821 0.0454102 9.26938 1.28845 6.1733 3.76963C3.07235 6.34415 1.52431 9.89149 1.52431 14.3969C1.53892 20.1896 4.26016 23.5994 6.71852 25.1618C8.21788 26.0658 11.6158 27.4513 16.0165 28.3357L19.7113 29.1464C26.1226 30.7235 29.8028 32.7232 29.686 35.9217C29.6178 37.8526 28.9558 39.3266 27.5002 40.3387C26.1664 41.2624 23.8979 41.8569 21.0744 41.8569C17.881 41.8569 15.3788 41.2132 13.5533 39.926C11.8202 38.8205 10.7736 36.8896 10.4085 34.1284H0.847656C1.12027 39.3757 2.94092 43.3308 6.31448 45.9987Z" fill="white"/>
<path d="M50.4248 58.2326C50.4248 60.704 48.5214 62.9493 45.7515 62.9493H41.0781V28.4192C41.6233 19.2315 44.9336 11.9108 58.7589 11.4097C64.7368 11.4883 69.0791 13.8859 71.6446 16.9125C74.3951 20.5188 75.5683 24.9996 75.5683 30.6351C75.5683 36.4572 74.1955 41.1739 71.445 44.7802C68.6994 48.2932 65.1701 50.0472 60.8667 50.0472C54.4068 50.0472 51.2718 47.3351 50.4199 46.8241C50.4199 47.1435 50.4248 58.2326 50.4248 58.2326ZM66.0902 31.0527C66.0902 27.4464 65.433 19.8211 58.1212 19.8211C51.1745 19.8211 50.4248 27.2646 50.4248 31.0527C50.4248 40.6482 55.8283 41.8716 58.3938 41.8716C65.0387 41.8716 66.0902 34.7622 66.0902 31.0527Z" fill="white"/>
<path d="M94.425 19.551C100.301 19.4723 101.211 24.5182 101.396 27.0043H87.454C87.454 27.0043 87.3371 19.6836 94.425 19.551ZM94.8339 41.7685C92.468 41.6506 87.9554 41.1789 87.5416 33.2146L111.234 33.2195C111.239 32.9788 111.234 30.3551 111.239 30.3502C111.074 24.3512 109.647 19.8752 106.863 16.5195C103.854 13.208 99.6143 11.5522 94.1475 11.5522C88.9533 11.5522 84.8982 13.2571 81.9823 16.6571C79.1539 19.9686 77.7422 24.5673 77.7422 30.4534C77.7422 36.6195 79.1977 41.3558 82.1186 44.6673C85.0345 48.0722 89.0945 49.7721 94.2838 49.7721C98.5677 49.7721 102.121 48.7158 104.95 46.5982C107.773 44.5789 109.701 41.6211 110.704 37.7593H102.472C101.26 41.2231 98.1685 41.9356 94.8339 41.7685Z" fill="white"/>
<path d="M137.36 37.7694H146.346C146.346 37.7694 143.908 49.7724 130.331 49.7724C116.758 49.7724 113.414 38.7766 113.414 31.5542C113.414 24.3318 114.685 11.9898 129.805 11.5574C143.771 11.3461 146.074 23.5604 146.074 23.5604H136.503C136.503 23.5604 135.573 19.4284 129.878 19.561C124.182 19.6888 122.693 25.0884 122.693 30.2227C122.693 35.3521 123.958 41.7737 130.282 41.7737C136.299 41.9505 136.829 38.6734 137.36 37.7694Z" fill="white"/>
<path d="M157.947 22.1844H163.57L163.565 12.5103H157.962V6.30491C157.962 4.60003 157.022 1.61279 153.449 1.61279H148.527V42.1812C148.527 46.4115 150.153 48.9418 153.673 48.9418C153.712 48.9418 157.801 48.9467 157.952 48.9467L157.947 22.1844Z" fill="white"/>
<path d="M173.586 49.0155V30.1094C173.586 27.3482 174.224 25.3289 175.499 24.0367C176.775 22.7494 178.732 22.1058 181.38 22.1058H184.525V12.3088C184.525 12.3088 179.574 12.186 175.981 13.2767C173.674 13.9744 171.629 14.9325 169.896 16.3131C168.071 17.7871 166.635 19.7425 165.588 22.1795C164.541 24.6164 164.016 27.6283 164.016 31.2198V49.0204H173.586V49.0155Z" fill="white"/>
<path d="M187.227 12.3677H196.797V35.8234C196.797 35.8234 196.452 42.1663 203.087 42.1712C209.342 42.1762 209.503 36.4965 209.508 36.0936V16.9173C209.508 16.9173 209.829 12.3677 213.981 12.3677C214.395 12.3677 218.947 12.3677 218.947 12.3677C218.947 12.3677 218.942 33.9465 218.947 34.1529C218.879 35.3419 220.203 49.7671 203.087 49.713C186.131 49.713 187.334 35.1159 187.227 34.256V12.3677Z" fill="white"/>
<path d="M253.501 49.1329H244.023V25.5544C244.023 22.8374 242.913 19.1771 237.563 19.1771C232.315 19.1771 231.244 23.3386 231.244 25.5544V49.128H221.625V27.4951C221.625 21.2111 223.47 17.369 226.503 14.8731C229.506 12.4018 233.347 11.5911 237.286 11.4044C239.393 11.4044 241.453 11.6353 243.468 12.0971C245.483 12.559 247.314 13.4827 248.964 14.8682C250.337 13.6694 251.963 12.8145 253.842 12.3035C255.716 11.7974 257.663 11.4142 259.679 11.4044C271.411 11.3405 276.118 16.7647 276.507 18.504C276.507 18.5285 276.512 49.1231 276.512 49.1231H271.084C269.712 49.1231 266.411 48.1798 266.411 44.4064V25.5544C266.435 22.8816 265.511 19.1771 259.951 19.1771C254.455 19.1771 253.491 23.3386 253.491 25.5544V49.1329H253.501Z" fill="white"/>
<path d="M279.184 18.4941V49.0838L299.152 33.7939L279.184 18.4941Z" fill="#0099D8"/>
</svg>
